<svg id="_2" data-name="2" xmlns="http://www.w3.org/2000/svg" viewBox="0 0 512 411.13"><defs><style>.cls-1{fill:#4b4b4b;}</style></defs><title>check-icon</title><path class="cls-1" d="M437.32,58.53c6.28,17.69,23.25,72.19,11.05,114.8l-.73,2.57,1.41,2.26c18.62,29.87,28.06,63.24,28.06,99.18,0,.12,0,.23,0,.34s0,.42,0,.63v7.59l7.38-1.75,18.42-4.35,1.89,8-24.29,5.75-4.1,1-.48,4.19a159.46,159.46,0,0,1-19.48,61.14l-3.38,6,6.38,2.55,31.9,12.75-3,7.61-35.62-14.25-4.28-1.71-2.75,3.68C408,426.72,338.85,455.56,256,455.56S104,426.72,66.36,376.42l-2.75-3.68-4.28,1.71L23.71,388.7l-3-7.61,31.9-12.75L59,365.79l-3.38-6a159.88,159.88,0,0,1-19.5-61.14l-.47-4.19-4.11-1L7.22,287.76l1.89-8,18.42,4.35,7.38,1.75v-7.59c0-.26,0-.52,0-.77v-.2c0-35.89,9.44-69.26,28.07-99.17l1.41-2.26-.73-2.56C51.43,130.79,68.4,76.23,74.68,58.53c14.26,6.55,51.8,24.86,75.11,45.81l2.5,2.25,3.23-1C181.73,97.76,213.66,94.09,256,94.09c41.2,0,73,3.8,100,12l3.25,1,2.51-2.28C385,83.64,423,65.13,437.32,58.53m3.38-8.09s-52.89,22.56-83,49.86C327.11,91.06,292.58,88.09,256,88.09c-36.77,0-71.48,2.57-102.2,11.79C123.64,72.77,71.3,50.44,71.3,50.44S42.41,121.06,57.86,175a191.91,191.91,0,0,0-29,102.34c0,.33,0,.65,0,1L4.66,272.58,0,292.22l30.11,7.12a165.65,165.65,0,0,0,20.23,63.43l-37.46,15,7.48,18.75L61.56,380c39.8,53.14,112,81.54,194.44,81.54S410.64,433.16,450.44,380l41.2,16.48,7.49-18.75-37.47-15a165.47,165.47,0,0,0,20.22-63.43L512,292.22l-4.66-19.64-24.25,5.73c0-.33,0-.64,0-1a191.77,191.77,0,0,0-29-102.36C469.58,121.05,440.7,50.44,440.7,50.44Z" transform="translate(0 -50.44)"/></svg>