<svg xmlns="http://www.w3.org/2000/svg" width="35.111" height="16.64" viewBox="0 0 35.111 16.64">
  <g id="魚の骨のフリーアイコン2" transform="translate(0 -134.674)">
    <path id="パス_14" data-name="パス 14" d="M85.322,210.766a1.427,1.427,0,1,0,1.427,1.427A1.426,1.426,0,0,0,85.322,210.766Zm0,2.167a.74.74,0,1,1,.74-.74A.741.741,0,0,1,85.322,212.933Z" transform="translate(-78.196 -70.988)" fill="#fff"/>
    <path id="パス_15" data-name="パス 15" d="M425.81,223.233l.008-.01.007-.01Z" transform="translate(-397.744 -82.468)" fill="#fff"/>
    <path id="パス_16" data-name="パス 16" d="M34.564,142.995l.546-6.341-.868.158a7.064,7.064,0,0,0-3.837,2.453c-.471.528-.868,1.052-1.19,1.48l-.008.01c-.189.253-.357.472-.485.628h-.733v-2.371a1.363,1.363,0,0,0-2.727,0v2.371H24.168V138.4a1.363,1.363,0,0,0-2.727,0v2.984H20.347v-3.6a1.364,1.364,0,0,0-2.727,0v3.6H16.527V138.4a1.364,1.364,0,0,0-2.727,0v2.984h-.938a19.907,19.907,0,0,0-1.205-6.274l-.086-.2-.1-.236L11,134.7A13.873,13.873,0,0,0,3.3,138.02a20.721,20.721,0,0,0-2.191,2.064c-.256.28-.454.512-.589.677-.068.082-.12.147-.156.193l-.041.053-.009.012,0,.005-.144.191L0,141.438l1.2,1.557L0,144.551l.308.409,0,.006,0,0h0a19.219,19.219,0,0,0,2.985,3A13.88,13.88,0,0,0,11,151.285l.215.013.257.016.189-.432a19.922,19.922,0,0,0,1.205-6.274H13.8v2.984a1.364,1.364,0,0,0,2.727,0v-2.984H17.62v3.6a1.364,1.364,0,0,0,2.727,0v-3.6h1.094v2.984a1.363,1.363,0,1,0,2.727,0v-2.984h1.094v2.371a1.363,1.363,0,1,0,2.727,0v-2.371h.734c.131.157.3.38.492.636a16.734,16.734,0,0,0,1.956,2.264,6.242,6.242,0,0,0,3.072,1.669l.395.072.473.086Zm-.542,5.119a6.572,6.572,0,0,1-2.885-2.043c-.438-.49-.817-.991-1.138-1.416a8.159,8.159,0,0,0-.812-.99l-.127-.116-.165.048a.618.618,0,0,1-.176.03H27.008v3.352a.383.383,0,0,1-.766,0v-3.352H23.188v3.965a.383.383,0,0,1-.766,0v-3.965H19.367V148.2a.383.383,0,1,1-.766,0v-4.578H15.546v3.965a.383.383,0,0,1-.766,0v-3.965H11.924l-.01.3a23.817,23.817,0,0,1-.635,4.88c-.137.558-.269.983-.366,1.267-.029.084-.053.151-.075.21a13.067,13.067,0,0,1-6.918-3.072,19.66,19.66,0,0,1-2.085-1.966c-.243-.265-.43-.485-.555-.637l-.043-.053,1.2-1.557-1.2-1.557a19.077,19.077,0,0,1,3.026-2.927,12.784,12.784,0,0,1,6.577-2.8,20.849,20.849,0,0,1,1.076,6.358l.01.3H14.78V138.4a.383.383,0,0,1,.766,0v3.965H18.6v-4.578a.383.383,0,0,1,.766,0v4.578h3.055V138.4a.383.383,0,0,1,.766,0v3.965h3.054v-3.352a.383.383,0,0,1,.766,0v3.352h1.711a.62.62,0,0,1,.175.029l.165.048.127-.116a8.207,8.207,0,0,0,.812-.99,15.842,15.842,0,0,1,1.838-2.132,5.638,5.638,0,0,1,2.185-1.33l-.442,5.122Z" fill="#fff"/>
  </g>
</svg>
