<svg xmlns="http://www.w3.org/2000/svg" width="46" height="36.935" viewBox="0 0 46 36.935">
  <g id="create-icon" transform="translate(-173 -410)">
    <path id="check-icon-done" d="M43.294,72.8,46,72.162,45.581,70.4l-2.179.515v-.09a17.229,17.229,0,0,0-2.605-9.2c1.392-4.843-1.2-11.186-1.2-11.186a32.324,32.324,0,0,0-7.457,4.48A31.9,31.9,0,0,0,23,53.823a32.3,32.3,0,0,0-9.182,1.059A32.458,32.458,0,0,0,6.406,50.44S3.81,56.785,5.2,61.631a17.242,17.242,0,0,0-2.605,9.195c0,.03,0,.058,0,.09L.419,70.4,0,72.162l2.705.64a14.883,14.883,0,0,0,1.818,5.7L1.157,79.849l.672,1.685,3.7-1.484C9.107,84.823,15.593,87.375,23,87.375s13.893-2.55,17.469-7.326l3.7,1.481.673-1.685L41.477,78.5A14.866,14.866,0,0,0,43.294,72.8Z" transform="translate(173 359.56)" fill="#4b4846"/>
    <line id="線_1" data-name="線 1" x2="12.071" transform="translate(189.5 431.036)" fill="none" stroke="#fff" stroke-linecap="round" stroke-width="2"/>
    <line id="線_2" data-name="線 2" x2="12.071" transform="translate(195.536 425) rotate(90)" fill="none" stroke="#fff" stroke-linecap="round" stroke-width="2"/>
  </g>
</svg>
