<svg id="icon-check-done" xmlns="http://www.w3.org/2000/svg" width="40.717" height="33.967" viewBox="0 0 40.717 33.967">
  <path id="パス_11" data-name="パス 11" d="M138.491,211.041c.939,0,1.7-1.077,1.7-2.406s-.759-2.405-1.7-2.405-1.7,1.077-1.7,2.405S137.554,211.041,138.491,211.041Z" transform="translate(-125.914 -193.204)" fill="#4b4b4b"/>
  <path id="パス_12" data-name="パス 12" d="M334.224,211.041c.937,0,1.7-1.077,1.7-2.406s-.761-2.405-1.7-2.405-1.7,1.077-1.7,2.405S333.285,211.041,334.224,211.041Z" transform="translate(-306.082 -193.204)" fill="#4b4b4b"/>
  <path id="パス_13" data-name="パス 13" d="M33.941,49.519s-3.4-7.358-5.094-7.075-5.378,5.094-5.378,5.094H17.245s-3.68-4.811-5.378-5.094-5.094,7.075-5.094,7.075S-3.7,57.16,1.4,68.2C5.075,76.167,15.83,76.4,20.357,76.4s15.282-.236,18.962-8.207C44.413,57.16,33.941,49.519,33.941,49.519Zm-4.35-3.538,1.274,3.184-3.184-.637Zm-1.449,7.783a4.1,4.1,0,1,1-4.1,4.1A4.1,4.1,0,0,1,28.142,53.764ZM11.125,45.981l1.91,2.547-3.184.637Zm1.451,7.783a4.1,4.1,0,1,1-4.1,4.1A4.1,4.1,0,0,1,12.576,53.764ZM4.407,69.5l-.162-1.519,9.052-.967.162,1.52Zm9.284-3.791-9.276-.731.119-1.524,9.276.731Zm12.476,5.172a9.273,9.273,0,0,1-2.152.283,4.744,4.744,0,0,1-2.158-.46,3.523,3.523,0,0,1-1.363-1.215c-.052-.08-.082-.165-.128-.247A3.543,3.543,0,0,1,18.858,70.7a4.754,4.754,0,0,1-2.157.46,9.361,9.361,0,0,1-2.153-.282.722.722,0,0,1,.337-1.4,7.842,7.842,0,0,0,1.817.243,3.3,3.3,0,0,0,1.507-.306,2.059,2.059,0,0,0,.808-.72,4.062,4.062,0,0,0,.532-2.2,7.4,7.4,0,0,0-.081-1.084l-1.44-1.3a.963.963,0,0,1,.646-1.676h3.369a.962.962,0,0,1,.681,1.643l-1.5,1.5a7.375,7.375,0,0,0-.061.923,4.739,4.739,0,0,0,.282,1.713,2.181,2.181,0,0,0,1.06,1.207,3.3,3.3,0,0,0,1.508.306,7.9,7.9,0,0,0,1.817-.242.721.721,0,1,1,.335,1.4Zm.738-6.7,9.274-.731.119,1.524-9.274.731Zm9.4,5.315-9.052-.966.163-1.52,9.052.967Z" transform="translate(0 -42.436)" fill="#4b4846"/>
</svg>
