<svg id="icon-check" xmlns="http://www.w3.org/2000/svg" width="40.839" height="34.844" viewBox="0 0 40.839 34.844">
  <path id="パス_1" data-name="パス 1" d="M34.359,44.7c-3.381-7.125-5.4-7.125-6.279-7.125a2.825,2.825,0,0,0-.461.038c-1.444.24-3.3,1.757-5.528,4.513H18.746c-2.226-2.756-4.084-4.273-5.528-4.513a2.8,2.8,0,0,0-.459-.038h-.02c-.886,0-2.9.052-6.261,7.125C2.727,47.71-2.592,55.04,1.443,63.781c3.988,8.641,15.269,8.641,18.976,8.641s14.988,0,18.976-8.64C43.43,55.04,38.111,47.71,34.359,44.7ZM37.333,62.83c-3.282,7.11-12.875,7.32-16.914,7.32S6.787,69.939,3.506,62.83c-4.544-9.845,4.8-16.661,4.8-16.661s2.915-6.318,4.457-6.318l.087.007c1.515.252,4.8,4.544,4.8,4.544H23.2s3.282-4.292,4.8-4.544l.087-.007c1.54,0,4.457,6.318,4.457,6.318S41.877,52.984,37.333,62.83Z" transform="translate(0 -37.578)" fill="#4b4b4b"/>
  <path id="パス_2" data-name="パス 2" d="M78.008,305.651l8.274.652.059-.755-8.274-.651Z" transform="translate(-71.786 -283.575)" fill="#4b4b4b"/>
  <path id="パス_3" data-name="パス 3" d="M76.2,345.555l.081.753,8.075-.862-.081-.753Z" transform="translate(-70.122 -320.197)" fill="#4b4b4b"/>
  <path id="パス_4" data-name="パス 4" d="M329.586,306.3l8.273-.652-.059-.754-8.273.651Z" transform="translate(-303.243 -283.575)" fill="#4b4b4b"/>
  <path id="パス_5" data-name="パス 5" d="M333.56,345.446l8.075.862.081-.753-8.075-.862Z" transform="translate(-306.954 -320.197)" fill="#4b4b4b"/>
  <path id="パス_6" data-name="パス 6" d="M195.384,295.956a7.036,7.036,0,0,1-1.621.216,2.943,2.943,0,0,1-1.345-.273,1.946,1.946,0,0,1-.944-1.077,4.244,4.244,0,0,1-.252-1.528,6.574,6.574,0,0,1,.055-.824l1.333-1.333a.859.859,0,0,0-.607-1.466H189a.859.859,0,0,0-.575,1.5l1.284,1.163a6.5,6.5,0,0,1,.073.967,3.625,3.625,0,0,1-.475,1.961,1.836,1.836,0,0,1-.721.643,2.94,2.94,0,0,1-1.345.273,7.012,7.012,0,0,1-1.621-.217.644.644,0,1,0-.3,1.253,8.351,8.351,0,0,0,1.921.251,4.242,4.242,0,0,0,1.924-.41,3.158,3.158,0,0,0,1.345-1.3c.041.073.068.149.114.22a3.153,3.153,0,0,0,1.216,1.083,4.237,4.237,0,0,0,1.925.41,8.272,8.272,0,0,0,1.921-.252.643.643,0,1,0-.3-1.251Z" transform="translate(-170.081 -269.563)" fill="#4b4b4b"/>
  <path id="パス_7" data-name="パス 7" d="M139.636,105.711l-1.136,2.84,2.84-.568Z" transform="translate(-127.453 -100.277)" fill="#4b4b4b"/>
  <path id="パス_8" data-name="パス 8" d="M339.595,105.711l-1.7,2.272,2.84.568Z" transform="translate(-310.94 -100.277)" fill="#4b4b4b"/>
  <path id="パス_9" data-name="パス 9" d="M146.011,218.507a2.02,2.02,0,1,0,2.021-2.02A2.021,2.021,0,0,0,146.011,218.507Z" transform="translate(-134.365 -202.217)" fill="#4b4b4b"/>
  <path id="パス_10" data-name="パス 10" d="M317.361,220.527a2.02,2.02,0,1,0-2.02-2.02A2.02,2.02,0,0,0,317.361,220.527Z" transform="translate(-290.188 -202.217)" fill="#4b4b4b"/>
</svg>
