<svg xmlns="http://www.w3.org/2000/svg" width="20.959" height="29" viewBox="0 0 20.959 29">
  <g id="猫の手アイコン3" transform="translate(-73.016 0.5)">
    <path id="パス_19" data-name="パス 19" d="M194.736,83.67a1.508,1.508,0,1,0-1.762-1.2A1.508,1.508,0,0,0,194.736,83.67Z" transform="translate(-112.983 -76.306)" fill="#fff"/>
    <path id="パス_20" data-name="パス 20" d="M135.807,126.477a1.508,1.508,0,1,0,.145,2.127A1.508,1.508,0,0,0,135.807,126.477Z" transform="translate(-56.564 -119.268)" fill="#fff"/>
    <path id="パス_21" data-name="パス 21" d="M329.5,126.12a1.508,1.508,0,1,0,1.2,1.763A1.508,1.508,0,0,0,329.5,126.12Z" transform="translate(-240.466 -119.257)" fill="#fff"/>
    <path id="パス_22" data-name="パス 22" d="M270.566,83.329a1.509,1.509,0,0,0,.145-2.128h0a1.508,1.508,0,1,0-.145,2.127Z" transform="translate(-184.047 -76.311)" fill="#fff"/>
    <path id="パス_23" data-name="パス 23" d="M184.127,166.437c-2.383,0-5.012,2.75-4.251,4.706.735,1.889,3.031,1.111,4.251,1.111s3.516.778,4.251-1.111C189.139,169.187,186.51,166.437,184.127,166.437Z" transform="translate(-100.726 -157.509)" fill="#fff"/>
    <path id="パス_24" data-name="パス 24" d="M92.758,5.568A9.118,9.118,0,0,0,84.358,0H82.633a9.115,9.115,0,0,0-9.117,9.117V28H93.475V9.117A9.1,9.1,0,0,0,92.758,5.568ZM91.592,26.117H75.4v-17a7.23,7.23,0,0,1,7.233-7.233h1.725a7.231,7.231,0,0,1,7.235,7.233v17Z" transform="translate(0)" fill="#fff" stroke="#d56950" stroke-width="1"/>
  </g>
</svg>
