<svg xmlns="http://www.w3.org/2000/svg" width="27" height="26.291" viewBox="0 0 27 26.291">
  <g id="ネコの無料アイコン" transform="translate(-30 -15.724)">
    <path id="パス_26" data-name="パス 26" d="M26.3,10.906a5.457,5.457,0,0,0-.587-.836c-.025-.274-.084-.837-.2-1.417a5.578,5.578,0,0,0-.341-1.16,1.693,1.693,0,0,0-.313-.486.96.96,0,0,0-.26-.2.811.811,0,0,0-.363-.087,1.208,1.208,0,0,0-.52.128,2.708,2.708,0,0,0-.7.519,8.144,8.144,0,0,0-.969,1.2H18.6c-.126-.187-.319-.462-.553-.745a5,5,0,0,0-.7-.707,2.2,2.2,0,0,0-.419-.27,1.211,1.211,0,0,0-.52-.128.806.806,0,0,0-.363.087,1.107,1.107,0,0,0-.421.4,3.209,3.209,0,0,0-.365.89,12.271,12.271,0,0,0-.327,1.972,5.371,5.371,0,0,0-.588.836,5.128,5.128,0,0,0-.7,2.541,4.9,4.9,0,0,0,.31,1.7c.043.118.093.227.142.337a10.362,10.362,0,0,1-1.531,1.338c-.747.558-1.651,1.174-2.687,1.955l0,0A37.322,37.322,0,0,0,6.7,21.413c.207-.45.412-.907.586-1.366a6.631,6.631,0,0,0,.49-2.287,3.649,3.649,0,0,0-.683-2.183,3.96,3.96,0,0,0-1.387-1.212,3.709,3.709,0,0,0-1.691-.41h0a3.918,3.918,0,0,0-2.772,1.167A4.3,4.3,0,0,0,0,18.1,1.657,1.657,0,0,0,1.618,19.8h.041a1.666,1.666,0,0,0,1.656-1.618.993.993,0,0,1,.272-.71.637.637,0,0,1,.429-.2.367.367,0,0,1,.174.042.628.628,0,0,1,.214.2c.03.042.057.081.059.251a3.342,3.342,0,0,1-.276,1.106c-.168.448-.4.953-.648,1.488-.206.448-.42.911-.624,1.4a10.1,10.1,0,0,0-.9,3.812,6.389,6.389,0,0,0,.048.788,5.757,5.757,0,0,0,.546,1.88,4.092,4.092,0,0,0,1.77,1.83c.1.053.206.094.311.138a6,6,0,0,0,.34.723A4.155,4.155,0,0,0,7.56,33l.062.016H23.206l.075-.407a4.15,4.15,0,0,0,.052-.676,3.172,3.172,0,0,0-.4-1.626,2,2,0,0,0-.749-.724,2.266,2.266,0,0,0-.675-.231c.1-1.033.351-3.561.713-6.011.183-1.237.393-2.454.621-3.438a12.838,12.838,0,0,1,.352-1.268,4.057,4.057,0,0,1,.2-.491,6.086,6.086,0,0,0,1.011-.409,4.657,4.657,0,0,0,2.279-2.59,4.895,4.895,0,0,0,.31-1.7A5.125,5.125,0,0,0,26.3,10.906Zm-.536,3.9a3.653,3.653,0,0,1-1.807,2.053,6.576,6.576,0,0,1-2.48.641l.081.988c.218-.018.445-.043.677-.078-.009.026-.017.05-.026.077a24.573,24.573,0,0,0-.706,3.125c-.625,3.608-1.017,8.136-1.018,8.143l-.046.538h.54a1.492,1.492,0,0,1,.735.16,1.1,1.1,0,0,1,.5.622,2.586,2.586,0,0,1,.133.859c0,.033,0,.061,0,.092h-2.4a1.862,1.862,0,0,0,.029-.306,1.966,1.966,0,0,0-.226-.9,2.8,2.8,0,0,0-.7-.845c-.055-.045-.107-.086-.155-.121l.152-3.353-.99-.045h0l-.179,3.939.267.148a2.255,2.255,0,0,1,.456.365,1.593,1.593,0,0,1,.274.379.976.976,0,0,1,.109.436,1.05,1.05,0,0,1-.054.306H7.761A3.667,3.667,0,0,1,6.036,30.6c.02,0-.475-.579-.454-.578-.371-.619-.867-.826-1.41-1.32a3.18,3.18,0,0,1-.682-.909,4.77,4.77,0,0,1-.448-1.559A5.288,5.288,0,0,1,3,25.572a9.027,9.027,0,0,1,.827-3.431c.445-1.065.962-2.059,1.284-2.916a4.331,4.331,0,0,0,.341-1.468,1.34,1.34,0,0,0-.245-.82,1.615,1.615,0,0,0-.567-.505,1.364,1.364,0,0,0-.626-.151,1.624,1.624,0,0,0-1.131.489,1.98,1.98,0,0,0-.56,1.386.665.665,0,0,1-.666.651H1.642a.667.667,0,0,1-.651-.682,3.318,3.318,0,0,1,.951-2.3,2.953,2.953,0,0,1,2.073-.878,2.7,2.7,0,0,1,1.237.3,2.945,2.945,0,0,1,1.039.913,2.681,2.681,0,0,1,.494,1.6A5.6,5.6,0,0,1,6.36,19.7c-.245.645-.556,1.3-.861,1.962-.611,1.324-.72,3.642-.248,3.577a9.069,9.069,0,0,1,2.108-3.082c1.151-1.037,2.173-1.89,3.108-2.585l0,0c1.014-.764,1.909-1.373,2.682-1.95a12.676,12.676,0,0,0,1.461-1.238,4.716,4.716,0,0,0,1.691,1.4l.443-.886A3.662,3.662,0,0,1,14.88,14.8a3.886,3.886,0,0,1-.249-1.356A4.144,4.144,0,0,1,15.2,11.4a4.565,4.565,0,0,1,.4-.582c.053-.066.1-.116.125-.147l.032-.034.007-.007.131-.131.013-.185s0-.042.01-.122a12.515,12.515,0,0,1,.245-1.614,3.349,3.349,0,0,1,.251-.752.678.678,0,0,1,.056-.093c.012,0,.019.006.035.014a1.8,1.8,0,0,1,.431.333,6.52,6.52,0,0,1,.678.813c.091.127.166.238.218.316l.059.091.018.03.145.236h4.538l.145-.236.011-.016a8.674,8.674,0,0,1,.684-.933,3.627,3.627,0,0,1,.517-.509,1.073,1.073,0,0,1,.205-.129.2.2,0,0,1,.023-.009,1.785,1.785,0,0,1,.2.459,8.566,8.566,0,0,1,.28,1.374c.029.216.049.4.062.539.006.067.011.12.014.157l0,.053.014.185.131.131a4.193,4.193,0,0,1,.585.819,4.116,4.116,0,0,1,.545,2A3.884,3.884,0,0,1,25.761,14.8Z" transform="translate(30 9)" fill="#fff"/>
  </g>
</svg>
